<svg width="40" height="40" viewBox="0 0 40 40" fill="none" xmlns="http://www.w3.org/2000/svg">
<mask id="mask0_2003_659" style="mask-type:alpha" maskUnits="userSpaceOnUse" x="0" y="0" width="40" height="40">
<rect width="40" height="40" rx="20" fill="#D9D9D9"/>
</mask>
<g mask="url(#mask0_2003_659)">
<path d="M8.33998 20.9447C16.3218 21.1694 24.3095 21.1871 32.2913 21.0038C32.7729 20.992 33.3308 20.8914 33.7361 20.6135C34.0239 20.4183 34.0532 20.1818 33.6245 20.1936C25.6427 20.377 17.655 20.3592 9.67322 20.1345C9.20336 20.1227 8.6219 20.2587 8.22839 20.5248C7.92298 20.7318 7.92885 20.9328 8.33998 20.9447V20.9447Z" fill="#0F1F34"/>
<path d="M32.4672 20.6549C32.4437 22.9434 31.9562 25.161 31.2162 27.3135C31.0811 27.7038 30.946 28.1059 30.7405 28.4667C30.4703 28.9397 30.0709 29.058 29.554 29.1704C28.2972 29.4365 27.005 29.5607 25.7247 29.6139C23.2696 29.7144 20.8087 29.5488 18.3596 29.4187C17.1203 29.3537 15.8752 29.3478 14.6359 29.2709C13.3966 29.194 12.404 28.8451 11.5583 27.9877C9.69058 26.0953 9.60248 23.2687 9.53788 20.7732C9.52613 20.3178 7.9932 20.6135 8.00495 21.1871C8.06956 23.7122 8.1929 26.462 9.97837 28.4253C11.7639 30.3885 14.5889 30.1047 17.0498 30.223C19.9688 30.3649 22.8879 30.5955 25.8128 30.4181C27.2106 30.3353 28.6378 30.1934 29.9945 29.8504C30.9695 29.608 31.8153 29.1822 32.2793 28.2597C33.495 25.8588 33.9766 22.908 34.0001 20.241C34.0001 19.8034 32.4731 20.0754 32.4672 20.6549V20.6549Z" fill="#0F1F34"/>
<path d="M23.7926 9.30079C23.5283 8.21271 24.2154 6.79938 25.4899 7.17193C26.9406 7.5977 26.97 9.44863 27.017 10.6846C27.1403 13.8128 27.0111 16.941 27.064 20.0693C27.0757 20.8558 28.6263 20.6074 28.6145 19.9392C28.5793 17.8576 28.6204 15.7761 28.6204 13.6945C28.6204 12.6478 28.6028 11.6011 28.5617 10.5545C28.5264 9.66152 28.5264 8.70353 28.1858 7.8579C27.5632 6.3263 25.8776 5.67581 24.3388 6.15481C22.8 6.6338 21.8779 8.1654 22.2538 9.70882C22.4241 10.4007 23.957 9.99267 23.7867 9.29488L23.7926 9.30079Z" fill="#0F1F34"/>
<path d="M14.5523 29.9864C14.2527 30.8557 13.9473 31.7309 13.6478 32.6002C13.6067 32.7243 13.7124 32.8367 13.8064 32.8899C13.9473 32.9668 14.1588 32.9727 14.3115 32.9491C14.6345 32.9017 15.0574 32.7598 15.1807 32.4168C15.4803 31.5475 15.7857 30.6723 16.0852 29.8031C16.1263 29.6789 16.0206 29.5665 15.9266 29.5133C15.7857 29.4364 15.5742 29.4305 15.4215 29.4542C15.0985 29.5015 14.6756 29.6434 14.5523 29.9864Z" fill="#0F1F34"/>
<path d="M28.245 30.5655C28.4858 31.2693 28.7324 31.9789 28.9732 32.6826C29.0907 33.0256 29.5782 33.0433 29.866 32.9546C30.0481 32.9014 30.2477 32.8186 30.3711 32.6648C30.4592 32.5584 30.5532 32.4106 30.5062 32.2627C30.2654 31.559 30.0187 30.8494 29.7779 30.1457C29.6604 29.8027 29.1729 29.785 28.8851 29.8737C28.7031 29.9269 28.5034 30.0097 28.38 30.1634C28.2919 30.2699 28.198 30.4177 28.245 30.5655Z" fill="#0F1F34"/>
<path d="M11.4593 9.18862C10.6664 9.39559 9.97337 9.98694 9.8794 10.8444C9.80305 11.5422 10.085 12.1986 10.7193 12.5297C11.1363 12.7485 11.6296 12.7722 12.0878 12.7249C12.587 12.6717 13.098 12.4943 13.515 12.2163C14.1552 11.7906 14.8012 10.9922 14.4429 10.1762C13.9848 9.11765 12.6575 8.91068 11.659 9.17679C11.4828 9.2241 11.2831 9.30689 11.148 9.43107C11.0775 9.49612 10.9483 9.63213 10.9895 9.7504C11.101 10.052 11.6296 9.9692 11.8528 9.91006C12.0525 9.85684 11.6942 9.9278 11.8293 9.91006C11.8646 9.91006 11.9057 9.90415 11.9409 9.89824C11.706 9.93372 11.8646 9.89824 11.9292 9.90415C11.9938 9.90415 12.0701 9.94554 11.9057 9.90415C11.982 9.9278 12.0701 9.93372 12.1524 9.95146C12.264 9.97511 12.029 9.91006 12.1641 9.95737C12.2052 9.9692 12.2405 9.98694 12.2757 10.0047C12.3403 10.0342 12.4402 10.0697 12.4871 10.117C12.4167 10.0402 12.4754 10.1052 12.4989 10.1289C12.5341 10.1584 12.5694 10.1821 12.6046 10.2117C12.7221 10.3122 12.816 10.4305 12.8983 10.5605L12.8454 10.4718C12.9453 10.6493 13.004 10.8385 13.004 11.0455V10.939C13.004 11.1105 12.957 11.2583 12.8924 11.4121C12.8689 11.4594 12.8748 11.4476 12.9041 11.3884C12.8924 11.4062 12.8865 11.4239 12.8748 11.4417C12.8572 11.4712 12.8395 11.4949 12.8219 11.5245C12.7808 11.5836 12.7338 11.6427 12.6868 11.7019C12.6222 11.7787 12.7867 11.6013 12.6751 11.7078C12.6457 11.7373 12.6105 11.7669 12.5811 11.7906C12.5576 11.8083 12.5341 11.832 12.5048 11.8497C12.4167 11.9207 12.6575 11.7492 12.5165 11.8379C12.4813 11.8615 12.446 11.8793 12.4049 11.9029C12.2992 11.962 12.5811 11.8201 12.4636 11.8733C12.4225 11.8911 12.3873 11.9088 12.3462 11.9207C12.2228 11.9739 12.5694 11.8556 12.4108 11.897C12.3755 11.9088 12.3403 11.9147 12.3051 11.9266C12.1759 11.962 12.5459 11.8852 12.3579 11.9147C12.3286 11.9147 12.2933 11.9147 12.264 11.9266C12.5048 11.8852 12.3755 11.9266 12.3051 11.9266C12.2698 11.9266 12.2111 11.9325 12.1817 11.9266L12.2933 11.9384C12.2933 11.9384 12.2522 11.9384 12.2346 11.9325C12.1935 11.9266 12.1524 11.9147 12.1171 11.9088C12.0114 11.8911 12.2463 11.962 12.123 11.9088C12.0525 11.8793 11.982 11.8556 11.9116 11.8142C11.8939 11.8024 11.8763 11.7965 11.8587 11.7846L11.9057 11.8142C11.9057 11.8142 11.8352 11.761 11.8117 11.7432C11.706 11.6545 11.6179 11.5481 11.5474 11.4298L11.6003 11.5185C11.4593 11.2761 11.4006 11.0041 11.4006 10.7261V10.8326C11.4006 10.6906 11.4182 10.5546 11.4534 10.4186C11.4711 10.3477 11.4946 10.2767 11.5239 10.2117C11.5357 10.188 11.5533 10.1584 11.5592 10.1348C11.5239 10.1998 11.518 10.2117 11.5415 10.1703C11.5474 10.1525 11.5592 10.1407 11.5709 10.1229C11.6003 10.0697 11.6414 10.0165 11.6766 9.9692C11.7119 9.92189 11.8 9.86867 11.6649 9.97511C11.6942 9.95146 11.7177 9.9278 11.7412 9.90415C11.8352 9.82727 11.7177 9.93372 11.6884 9.93963C11.7119 9.93963 11.7589 9.89824 11.7765 9.88641C11.5709 10.0165 11.6531 9.94554 11.7236 9.91598C11.8352 9.86867 11.4828 9.98694 11.6531 9.93963C11.8235 9.89232 12.029 9.80953 12.1641 9.68535C12.2346 9.6203 12.3638 9.48429 12.3227 9.36602C12.2111 9.06443 11.6825 9.15313 11.4593 9.20636V9.18862Z" fill="#0F1F34"/>
<path d="M14.8484 14.842C14.7544 15.0786 14.7309 15.2737 14.7486 15.5221C14.7662 15.7054 14.8308 15.8651 14.913 16.0247C15.0599 16.3204 15.3241 16.5747 15.6119 16.7284C15.841 16.8467 16.0466 16.9236 16.2991 16.965C16.5517 17.0064 16.8277 16.9827 17.0803 16.9236C17.4385 16.8408 17.8203 16.6279 18.0494 16.3204C18.2138 16.0957 18.3137 15.8769 18.3841 15.6049C18.4429 15.3861 18.437 15.1614 18.4194 14.9366C18.4018 14.7119 18.3254 14.5227 18.2197 14.3275C18.0905 14.091 17.8732 13.9432 17.6382 13.8308C17.2741 13.6593 16.8453 13.6889 16.4694 13.7717C16.0113 13.8663 15.5826 14.1088 15.2008 14.363C15.0775 14.4458 14.9483 14.6173 14.9306 14.7711C14.913 14.9248 14.9894 15.0727 15.1127 15.1495C15.4534 15.3624 15.8939 15.2619 16.211 15.0549C16.2639 15.0194 16.3226 14.9839 16.3813 14.9485L16.211 15.049C16.3637 14.9603 16.5164 14.8775 16.6868 14.8125L16.4871 14.8834C16.581 14.8479 16.6809 14.8184 16.7807 14.8006L16.5693 14.8361C16.6398 14.8243 16.7102 14.8184 16.7807 14.8184H16.581C16.6398 14.8184 16.6985 14.8184 16.7572 14.8361L16.581 14.7947C16.6398 14.8065 16.6985 14.8302 16.7514 14.8539L16.6045 14.7829C16.6633 14.8125 16.722 14.8539 16.769 14.9012L16.6574 14.8006C16.7279 14.8716 16.7866 14.9544 16.8336 15.0431L16.769 14.913C16.8395 15.0608 16.8747 15.2146 16.8864 15.3742L16.8747 15.2264C16.8864 15.4156 16.863 15.6049 16.8101 15.7882L16.8571 15.6403C16.8218 15.7586 16.769 15.871 16.7044 15.9715L16.7983 15.8355C16.7572 15.8946 16.7161 15.9419 16.6691 15.9892L16.8042 15.8651C16.769 15.8946 16.7337 15.9242 16.6926 15.9479L16.863 15.8473C16.816 15.8769 16.7631 15.9005 16.7102 15.9242L16.9099 15.8532C16.863 15.871 16.816 15.8828 16.769 15.8946L16.9804 15.8591C16.9217 15.871 16.8571 15.871 16.7983 15.871H16.998C16.9276 15.871 16.863 15.8651 16.7983 15.8473L16.9745 15.8887C16.8806 15.8651 16.7925 15.8355 16.7102 15.7941L16.8571 15.8651C16.7279 15.8 16.6104 15.7231 16.5106 15.6226L16.6221 15.7231C16.5047 15.6108 16.4107 15.4866 16.3402 15.3388L16.4048 15.4689C16.3461 15.3506 16.3109 15.2264 16.305 15.0963L16.3167 15.2441C16.3109 15.1377 16.3226 15.0313 16.352 14.9307L16.305 15.0786C16.305 15.0786 16.3226 15.0313 16.3344 15.0076C16.3931 14.8657 16.399 14.7178 16.305 14.5877C16.211 14.4576 16.0231 14.3867 15.8704 14.3749C15.6648 14.3571 15.4475 14.3867 15.2654 14.4813C15.1127 14.5641 14.9365 14.6764 14.8719 14.842H14.8484Z" fill="#0F1F34"/>
<path d="M13.5903 21.3407C13.4317 23.1739 13.5257 25.013 13.8722 26.8166C13.9192 27.0532 14.3715 27.0236 14.5242 26.9999C15.3817 26.8994 16.2333 26.7989 17.0908 26.6924C17.9013 26.5978 18.935 26.45 19.3344 25.628C19.4812 25.3323 19.493 25.0012 19.4988 24.6759C19.5106 24.2502 19.5047 23.8185 19.4988 23.3927C19.4812 22.4879 19.4342 21.5891 19.3579 20.6902C19.3168 20.2408 17.778 20.5542 17.8249 21.1042C17.8896 21.8552 17.9365 22.6062 17.96 23.3572C17.9777 24.0373 18.054 24.7824 17.9365 25.4506C17.913 25.5748 17.8778 25.6871 17.8249 25.8054L17.7603 25.8882C17.731 25.8468 18.0716 25.8291 17.8132 25.8527C17.8954 25.8468 17.7838 25.8527 17.7603 25.8586C17.6664 25.8705 17.5724 25.8823 17.4784 25.8941C17.314 25.9119 17.1495 25.9355 16.9851 25.9532C16.2392 26.0419 15.4932 26.1307 14.7473 26.2194L15.3993 26.4027C15.0645 24.6641 14.9647 22.89 15.1115 21.1278C15.1409 20.8026 14.6827 20.8085 14.4596 20.844C14.2364 20.8795 13.6079 21.0332 13.5844 21.3407H13.5903Z" fill="#0F1F34"/>
</g>
</svg>
