<svg width="40" height="41" viewBox="0 0 40 41" fill="none" xmlns="http://www.w3.org/2000/svg">
<mask id="mask0_2003_570" style="mask-type:alpha" maskUnits="userSpaceOnUse" x="2" y="1" width="40" height="40">
<rect x="2" y="1" width="40" height="40" rx="20" fill="#D9D9D9"/>
</mask>
<g mask="url(#mask0_2003_570)">
<path d="M33.6516 45.0264C33.2194 42.7921 32.7893 40.5588 32.3612 38.3266C31.9125 35.9769 31.4638 33.6348 31.0151 31.3001C30.5664 28.9654 30.1146 26.5986 29.6596 24.1999L28.3197 17.1861C27.8875 14.9368 27.4543 12.6875 27.0201 10.4383C26.9673 10.1627 26.9146 9.88714 26.8588 9.61159C26.8029 9.33604 26.3067 9.38104 26.1206 9.43872C25.9769 9.48006 25.8414 9.54719 25.7204 9.63725C25.7016 9.56984 25.6767 9.50445 25.646 9.44184C25.3079 8.77219 24.489 8.75297 23.8501 8.80103C22.1032 8.91598 20.409 9.46562 18.9122 10.4031C18.7695 10.4928 18.4965 10.7235 18.7757 10.8421C19.0866 10.9194 19.4144 10.8664 19.6876 10.6947C19.9481 10.5281 20.218 10.3743 20.494 10.2333L20.6088 10.1756C20.677 10.1403 20.7484 10.1116 20.8197 10.0795C20.9624 10.0176 21.1051 9.9599 21.2477 9.9065L21.4618 9.8264L21.5796 9.79104C21.7254 9.74298 21.8898 9.70136 22.0232 9.66291L22.2496 9.60846L22.352 9.58609C22.505 9.55619 22.657 9.53048 22.8079 9.50912L23.1677 9.46422H23.267H23.3662H23.6082H23.7291C23.7756 9.46422 23.8315 9.46424 23.8718 9.48346C23.9862 9.51019 24.0926 9.56516 24.182 9.64366C24.3295 9.81013 24.4211 10.0212 24.4435 10.2457C24.4658 10.4701 24.4177 10.6961 24.3061 10.8901C24.1926 11.1021 24.0321 11.2833 23.8377 11.4187C23.756 11.4817 23.6699 11.5385 23.5802 11.5886C23.45 11.6655 23.3166 11.7359 23.1832 11.8064C22.6001 12.1268 22.1535 12.3319 21.5486 12.5818L21.1392 12.742L20.9159 12.8221H20.8817L20.767 12.8606C20.4754 12.9535 20.1777 13.0401 19.8799 13.1042L19.7713 13.1234L19.5418 13.165L19.3123 13.1971L19.1293 13.2195C18.8488 13.2464 18.5669 13.2529 18.2856 13.2387C17.8452 13.2099 17.2713 13.0849 17.1814 12.5178C17.0914 11.9507 17.7025 11.4636 18.1119 11.1848C18.177 11.14 18.2763 11.031 18.2515 10.9381C18.2267 10.8452 18.0902 10.8068 18.0126 10.7972C17.6832 10.7647 17.3533 10.8544 17.0821 11.0503C16.5921 11.3867 15.9531 11.9123 15.8756 12.5627C15.8508 12.7657 15.8865 12.9715 15.9779 13.153C16.0694 13.3344 16.2122 13.4829 16.3873 13.5784C16.3563 13.6195 16.3348 13.6674 16.3245 13.7185C16.3143 13.7697 16.3156 13.8226 16.3284 13.8731C16.3284 13.9212 16.3625 13.9692 16.378 14.0141C16.2943 14.0301 16.223 14.0493 16.1795 14.0621C16.04 14.1038 15.5344 14.2607 15.5995 14.4978C16.6975 18.6588 17.7594 22.8317 18.785 27.0162C19.852 31.3759 20.8704 35.7548 21.8402 40.153C22.3323 42.4086 22.8038 44.6696 23.2546 46.936C23.1832 46.9905 23.1398 47.0481 23.1553 47.1154C23.3879 48.1536 24.2037 48.9353 25.1125 49.3583C25.6476 49.6036 26.2072 49.7873 26.7812 49.9062C27.3097 50.0363 27.8509 50.103 28.3941 50.1049C29.1577 50.1067 29.905 49.8772 30.5436 49.4448C30.6306 49.4455 30.7173 49.4337 30.8011 49.4096C31.0585 49.3295 31.3997 49.1116 31.3315 48.7847C31.2177 48.2208 31.104 47.658 30.9903 47.0962C31.9797 46.8879 32.9475 46.324 33.4282 45.3948C33.5 45.368 33.5609 45.3172 33.6014 45.2504C33.6419 45.1836 33.6596 45.1047 33.6516 45.0264ZM29.4177 49.5249H29.3898H29.3712H29.3526H29.244C29.1335 49.5325 29.0226 49.5325 28.9121 49.5249C28.7911 49.5249 28.6702 49.5024 28.5492 49.4864C27.9446 49.3975 27.3495 49.2495 26.7719 49.0443C25.7794 48.679 24.8457 47.9549 24.5294 46.888C24.5599 46.8655 24.5838 46.8347 24.5986 46.7991C24.6134 46.7635 24.6184 46.7245 24.6131 46.6861C23.7819 42.46 22.8576 38.2529 21.8867 34.0588C20.8735 29.6778 19.8117 25.3117 18.7012 20.9606C18.1781 18.895 17.6446 16.8315 17.1007 14.7702C17.727 15.0904 18.4123 15.2686 19.1107 15.2926C20.3471 15.4001 21.5916 15.2397 22.7645 14.8215C23.119 14.6943 23.466 14.5456 23.8036 14.3761C24.1262 16.2088 24.4467 18.0438 24.7651 19.8808L26.0213 27.1092C26.4617 29.6404 26.9074 32.1715 27.3581 34.7028C27.7924 37.1336 28.2349 39.5645 28.6857 41.9953C29.0858 44.1324 29.4921 46.2664 29.9264 48.4035C29.9729 48.6406 30.0225 48.8776 30.0722 49.1147C30.0761 49.1391 30.0834 49.1629 30.0939 49.1853C29.8793 49.2326 29.6765 49.3253 29.4983 49.4576L29.4177 49.5249ZM31.136 46.6187L31.2074 46.6027L31.136 46.6187ZM32.2527 45.4941C32.2082 45.5936 32.1574 45.6899 32.1007 45.7825C32.0728 45.8273 32.0449 45.8722 32.0138 45.917L31.9766 45.9683V45.9876V46.0035C31.9114 46.0822 31.842 46.1571 31.7688 46.2279L31.6509 46.3368L31.5889 46.3881C31.53 46.4265 31.4586 46.465 31.3966 46.5067C31.3966 46.5067 31.3966 46.5226 31.3625 46.5386L31.3097 46.5643L31.2756 46.5804L31.1733 46.6124H31.1516H31.0833H30.9841C30.7111 45.2304 30.4444 43.8494 30.1838 42.4695C29.733 40.0665 29.2936 37.6613 28.8656 35.2539C28.4086 32.7227 27.9609 30.1904 27.5225 27.6571C27.0966 25.2241 26.6727 22.7901 26.2508 20.355C25.8807 18.2189 25.5075 16.0776 25.1311 13.9308C25.0877 13.6905 25.0474 13.4502 25.0039 13.2131C24.9481 12.8926 24.4704 12.8735 24.2409 12.944C24.1224 12.9693 24.0118 13.0247 23.9192 13.1053C23.8266 13.1858 23.7549 13.289 23.7105 13.4053L23.5834 13.4821C23.4376 13.5622 23.2918 13.6392 23.1398 13.7129C22.9878 13.7866 22.8296 13.8506 22.6808 13.9147L22.5908 13.9499H22.5567L22.3209 14.03C22.1628 14.0813 22.0108 14.1262 21.8402 14.1679L21.5982 14.2256L21.4339 14.2575C21.1261 14.3123 20.8153 14.3477 20.5033 14.3633H20.2862H20.0939C19.9295 14.3633 19.762 14.3632 19.5976 14.3376C19.4333 14.312 19.2657 14.3057 19.1014 14.28L18.8563 14.2415L18.7633 14.2223H18.723C18.5896 14.1871 18.4562 14.1518 18.3259 14.1037L18.1926 14.0461C18.1378 14.019 18.0849 13.9879 18.0344 13.9532C17.9816 13.9217 17.9318 13.8853 17.8855 13.8443C18.3098 13.848 18.7339 13.819 19.1541 13.7578C19.9463 13.6423 20.7248 13.4425 21.4773 13.1617C22.1965 12.8941 22.8997 12.5829 23.5834 12.2295C24.2037 11.909 24.883 11.5886 25.3451 11.0311C25.4789 10.8639 25.5838 10.6742 25.6553 10.4703C26.0523 12.521 26.4473 14.5716 26.8402 16.6222C27.2909 18.9719 27.7397 21.3151 28.1863 23.652C28.633 25.9888 29.0848 28.3545 29.5418 30.749C29.9884 33.0879 30.4361 35.4269 30.8848 37.7659C31.3149 40.0151 31.7471 42.2644 32.1813 44.5137C32.2372 44.786 32.2899 45.0615 32.3426 45.3371C32.2966 45.3777 32.265 45.433 32.2527 45.4941V45.4941Z" fill="#212D3D"/>
<path d="M13.8906 21.7455C14.7963 21.4388 15.6581 21.0077 16.4526 20.4639C16.5127 20.4263 16.5632 20.3747 16.6002 20.313C16.6371 20.2514 16.6594 20.1816 16.6652 20.1093C16.6709 20.0371 16.66 19.9645 16.6333 19.8975C16.6066 19.8305 16.5649 19.7708 16.5116 19.7237C16.368 19.6366 16.2023 19.5965 16.0362 19.6086C15.8701 19.6206 15.7115 19.6841 15.581 19.791L15.4756 19.8647L15.2771 19.9897C15.1251 20.0794 14.9669 20.1691 14.8149 20.2492C14.5292 20.4024 14.2351 20.5383 13.934 20.6561L13.7976 20.7074L13.5804 20.7811C13.4098 20.8388 13.2423 20.8869 13.0717 20.9349L12.8453 20.9894L12.743 21.0117H12.6623L12.6437 20.983C12.6385 20.9491 12.6302 20.9158 12.6189 20.8836C12.6142 20.8271 12.6142 20.7704 12.6189 20.7139C12.6189 20.6882 12.6189 20.6625 12.6189 20.6369C12.6196 20.6316 12.6196 20.6262 12.6189 20.6209C12.6189 20.6209 12.6189 20.6209 12.6189 20.5953C12.6577 20.4799 12.7043 20.3675 12.7585 20.2589L12.8701 20.0602L12.9539 19.9257C13.1158 19.6753 13.294 19.4365 13.4874 19.2112L13.6239 19.0574C13.6239 19.0574 13.6983 18.9837 13.7138 18.9645C13.8193 18.8587 13.9278 18.7562 14.0426 18.644C14.1573 18.5319 14.3 18.4326 14.4334 18.3236L14.6257 18.1889L14.7467 18.1121C15.0317 17.943 15.3282 17.7952 15.6338 17.67C15.703 17.6463 15.7665 17.6074 15.8199 17.5561C15.8733 17.5048 15.9154 17.4422 15.9433 17.3726C15.9713 17.303 15.9844 17.2281 15.9818 17.1528C15.9793 17.0775 15.9611 17.0036 15.9284 16.9363C15.7268 16.6383 15.3081 16.6991 15.0444 16.8112C13.7087 17.3574 12.5705 18.3192 11.7876 19.5635C11.4433 20.1242 10.9936 20.9541 11.4309 21.5981C11.9954 22.4023 13.171 21.989 13.8906 21.7455ZM12.7181 21.015C12.6685 21.015 12.6933 21.015 12.7181 21.015V21.015ZM12.6344 21.015H12.653C12.6465 21.0193 12.639 21.0216 12.6313 21.0216C12.6236 21.0216 12.6161 21.0193 12.6096 21.015H12.6344Z" fill="#212D3D"/>
<path d="M19.1942 35.7314C18.0427 32.7367 16.7402 29.8063 15.2922 26.9522C14.4651 25.3437 13.6028 23.762 12.7054 22.2069C12.4883 21.8352 11.2693 22.3223 11.412 22.5658C13.0257 25.336 14.4979 28.1916 15.8226 31.1208C17.144 34.045 18.314 37.0397 19.3276 40.0923C19.9024 41.8011 20.4256 43.5345 20.897 45.2925C20.9591 45.5232 21.4647 45.4077 21.6073 45.3629C21.75 45.318 22.2525 45.1675 22.1905 44.9336C21.348 41.8142 20.3479 38.7426 19.1942 35.7314Z" fill="#212D3D"/>
</g>
</svg>
