<svg width="40" height="40" viewBox="0 0 40 40" fill="none" xmlns="http://www.w3.org/2000/svg">
<mask id="mask0_2003_567" style="mask-type:alpha" maskUnits="userSpaceOnUse" x="0" y="0" width="40" height="40">
<rect width="40" height="40" rx="20" fill="#D9D9D9"/>
</mask>
<g mask="url(#mask0_2003_567)">
<path d="M33.4457 14.8701C33.199 12.8118 32.8316 10.4736 31.4499 8.84344C30.5451 7.77313 29.1689 7.13094 27.7981 7.1529C27.82 6.98823 27.5733 6.99372 27.3759 7.0047C21.7556 7.36147 16.1244 7.36147 10.4932 7.38892C10.3122 7.38892 10.1039 7.41087 9.90098 7.45478C9.90098 7.44929 9.8955 7.43831 9.89001 7.43283C9.68165 7.13643 9.19913 7.16936 8.91401 7.30658C7.85027 7.83351 7.29647 8.99713 7.13198 10.1223C7.02231 10.8798 7.08263 11.6866 7.40065 12.3782C7.34582 12.4331 7.30196 12.4935 7.26906 12.5648C7.12101 12.9106 7.40065 13.218 7.76254 13.2235C7.84479 13.2235 7.93252 13.2235 8.01477 13.2235C8.22313 13.3827 8.56309 13.3497 8.81531 13.2345C9.68165 13.2454 10.548 13.2509 11.4089 13.24C12.2533 16.0283 12.4452 18.9922 12.3355 21.8903C12.2368 24.5304 11.8914 27.176 11.2608 29.7392C11.1457 30.2113 12.5713 29.9972 12.6864 29.5416C13.3389 26.907 13.6789 24.1846 13.7666 21.4731C13.8598 18.7068 13.6899 15.8965 12.9387 13.218C17.0017 13.1357 21.0592 12.8887 25.1278 12.746C25.6761 12.724 26.0215 12.2959 25.9722 11.9666C26.3176 11.8293 26.5644 11.5988 26.3615 11.4177C25.369 10.545 25.6267 8.31103 27.0688 7.99817C28.9879 7.58102 30.5561 9.67225 31.1318 11.2036C31.7405 12.8118 31.9708 14.5792 32.1133 16.2862C32.2723 18.1305 32.2888 19.9912 32.1956 21.8409C32.1024 23.7455 31.905 25.6611 31.4224 27.5108C31.2854 28.0377 32.722 27.8346 32.8536 27.3351C33.8954 23.3613 33.9173 18.9208 33.4348 14.8591L33.4457 14.8701ZM24.711 11.6153C19.4362 11.8184 14.1669 12.1806 8.88111 12.0763C8.84821 12.0269 8.81531 11.9775 8.7879 11.9226C8.77693 11.9007 8.77145 11.8842 8.76048 11.8623C8.74403 11.8129 8.7221 11.7635 8.70565 11.7141C8.67275 11.6098 8.63985 11.5055 8.61792 11.4012C8.51374 10.9566 8.50825 10.5779 8.57405 10.0839C8.63437 9.62285 8.72758 9.29352 8.95788 8.85442C8.97432 8.82149 8.99626 8.78307 9.01819 8.75013C9.02367 8.73915 9.06206 8.68427 9.07302 8.6678C9.13334 8.58547 9.19365 8.50314 9.26493 8.42629C9.2759 8.40983 9.29235 8.39885 9.30332 8.38238C9.3417 8.34945 9.3746 8.32201 9.41298 8.28908C9.41846 8.28359 9.44588 8.26712 9.47329 8.25065C9.50619 8.23419 9.55554 8.20674 9.56651 8.20125C9.64327 8.16283 9.72004 8.10246 9.79132 8.03659C15.1484 8.01464 20.5054 7.99268 25.857 7.6908C24.5794 8.48118 23.8008 10.3474 24.7165 11.6098L24.711 11.6153Z" fill="#0F1F34"/>
<path d="M26.899 21.2038C26.8386 21.1708 26.7619 21.1654 26.7125 21.1599C26.7016 21.1599 26.6961 21.1599 26.6851 21.1599C26.8661 20.9842 27.0086 20.6329 26.7125 20.4847C25.243 19.7438 23.6584 19.2772 22.0189 19.14C21.679 19.1126 21.2403 19.2443 21.0868 19.5736C21.0649 19.623 21.0539 19.6669 21.0484 19.7108C20.7249 19.892 20.4453 20.1225 20.2314 20.4134C19.5131 20.2872 18.6194 20.6659 18.2246 21.2257C17.9888 21.5551 17.8901 21.9503 17.8079 22.34C17.7092 22.8065 17.5721 23.2895 17.5227 23.767C17.4789 24.1952 17.6708 24.4531 18.0601 24.6178C18.5371 24.8154 19.0416 24.9581 19.5296 25.1283C20.3904 25.4301 21.2513 25.7265 22.1122 26.0284C21.8654 26.3083 21.6461 26.6102 21.4542 26.9341C20.7468 26.8298 20.0176 26.8792 19.3377 27.1097C19.0854 27.1975 18.74 27.4006 18.7455 27.708C18.7235 27.7354 18.6961 27.7629 18.6797 27.7958C17.9395 29.5138 17.1992 31.2373 16.4645 32.9553C16.3274 33.2791 16.5961 33.5316 16.9031 33.57C17.2321 33.6139 17.6927 33.4602 17.8353 33.1309C18.57 31.4239 19.3048 29.7114 20.0395 28.0044C20.4891 27.9166 20.9497 27.9385 21.3939 28.0922C21.5638 28.1471 21.9696 28.2569 22.0354 28.4599C22.0738 28.5807 21.986 28.7563 21.9477 28.8716C21.8764 29.0747 21.8106 29.2723 21.7393 29.4754L20.1492 34.0475C19.875 34.8324 21.3061 34.8434 21.52 34.2232C21.8435 33.301 22.1615 32.3789 22.485 31.4568C22.803 30.5512 23.154 29.651 23.4281 28.7289C23.5542 28.3008 23.4994 27.9056 23.154 27.5982C22.9949 27.461 22.8085 27.3457 22.6111 27.2579C22.8743 26.72 23.2198 26.2315 23.642 25.7979C23.7516 25.6826 23.6968 25.5234 23.5542 25.474C22.1396 24.9801 20.7194 24.5135 19.3157 23.9976C18.9813 23.8768 18.9319 23.7067 18.9977 23.3609C19.069 22.9931 19.1512 22.6254 19.228 22.2576C19.2883 21.9667 19.3431 21.6648 19.4693 21.3904C19.4857 21.363 19.5405 21.2861 19.5954 21.2202C19.6831 21.2477 19.7708 21.2532 19.8695 21.2477C19.7873 21.6374 19.8037 22.0545 19.9627 22.4223C19.9956 22.4936 20.0889 22.5156 20.1656 22.5211C20.0066 22.6967 19.9079 22.9657 20.1711 23.1139C21.339 23.767 22.5947 24.261 23.8997 24.5629C24.2122 24.6343 24.607 24.5739 24.8537 24.3379C25.0731 24.4367 25.3253 24.4806 25.583 24.4806C26.4 24.4696 27.228 24.0634 27.6337 23.3389C27.9791 22.7297 28.0559 21.8679 27.6776 21.2532C27.5734 21.083 27.2389 21.105 26.9154 21.1983L26.899 21.2038ZM24.5412 22.1808C24.278 22.5485 24.108 23.0535 24.1903 23.5146C23.1594 23.2291 22.1889 22.8449 21.2677 22.3345C21.2294 22.3125 21.1855 22.307 21.1471 22.2906C21.169 22.2796 21.191 22.2741 21.2074 22.2576C21.2623 22.2192 21.4103 22.1259 21.3719 22.0436C21.2458 21.7417 21.2074 21.4178 21.2458 21.0885C21.2952 20.8031 21.3939 20.5287 21.5474 20.2872C21.5638 20.2597 21.5858 20.2323 21.6022 20.2048C21.6077 20.1938 21.6187 20.1884 21.6241 20.1774C23.0114 20.3036 24.3493 20.6659 25.6104 21.3026C25.6323 21.3136 25.6598 21.319 25.6817 21.3245C25.2266 21.4947 24.8208 21.7856 24.5412 22.1808V22.1808ZM26.2958 23.8768C26.2958 23.8768 26.2958 23.8768 26.2903 23.8768H26.2958ZM26.2794 23.8713C26.2355 23.8658 26.2136 23.8494 26.2794 23.8713V23.8713ZM26.4658 22.8065C26.4274 23.0864 26.3397 23.3609 26.1971 23.6079C26.1807 23.6353 26.1642 23.6628 26.1478 23.6902C26.1478 23.6902 26.1149 23.7396 26.1094 23.7506C26.0984 23.767 26.082 23.7835 26.071 23.7945C26.0436 23.778 26.0107 23.7615 25.9833 23.7396C25.912 23.6847 25.8517 23.6188 25.7968 23.553C25.6488 23.3224 25.5994 23.059 25.6159 22.79C25.6378 22.6309 25.6762 22.4772 25.742 22.3345C25.7804 22.2521 25.8188 22.1698 25.8681 22.0875C25.8846 22.06 25.9065 22.0271 25.923 21.9997C25.9339 21.9887 25.9339 21.9832 25.9339 21.9777C25.9449 21.9667 25.9559 21.9503 25.9668 21.9393C26.0162 21.8789 26.0655 21.824 26.1258 21.7691C26.1258 21.7691 26.1313 21.7691 26.1368 21.7636C26.1861 21.7581 26.2355 21.7472 26.2848 21.7362C26.4603 22.0655 26.5097 22.4388 26.4768 22.8065H26.4658Z" fill="#0F1F34"/>
</g>
</svg>
