<svg width="40" height="40" viewBox="0 0 40 40" fill="none" xmlns="http://www.w3.org/2000/svg">
<mask id="mask0_2003_568" style="mask-type:alpha" maskUnits="userSpaceOnUse" x="0" y="0" width="40" height="40">
<rect width="40" height="40" rx="20" fill="#D9D9D9"/>
</mask>
<g mask="url(#mask0_2003_568)">
<path fill-rule="evenodd" clip-rule="evenodd" d="M48.6017 14.9122C48.4165 14.8682 48.2238 14.8719 48.0403 14.9226C47.8568 14.9734 47.6881 15.0698 47.549 15.2034C47.2385 15.4947 46.9173 15.7822 46.5961 16.0624L45.993 16.5823L45.9431 16.6228L45.786 16.7554L45.4291 17.0431C44.3847 17.9057 43.3225 18.7486 42.2423 19.5719C39.7693 21.4668 37.2462 23.2878 34.6161 24.9725C33.9916 25.3744 33.3599 25.7688 32.7247 26.1485C32.4201 26.3279 32.1168 26.505 31.8146 26.6795L31.7147 26.7348L31.522 26.8453L31.0545 27.0996C30.5156 27.3872 29.9839 27.6637 29.4165 27.9181C29.1667 28.0324 28.9097 28.143 28.6528 28.2462L28.3638 28.3568H28.3209L28.1318 28.4194C27.7971 28.52 27.4577 28.6024 27.1147 28.6664L26.8935 28.707L26.5937 28.7549C26.4156 28.7862 26.2344 28.8108 26.056 28.8352L26.0227 28.8397C25.8335 28.8655 25.6979 28.8765 25.5338 28.8876C25.4022 28.8944 25.2704 28.8845 25.1412 28.8581C24.7472 28.7673 24.3801 28.5802 24.0706 28.3125C23.3882 27.6694 22.943 26.8016 22.8109 25.8572C22.6253 24.8748 22.6253 23.8647 22.8109 22.8823C22.8965 22.4228 23.0648 21.984 23.3069 21.5885C23.4085 21.4325 23.5284 21.29 23.6638 21.1644L23.6816 21.146L23.8173 21.0429L23.9172 20.9765H23.9386L23.9886 20.9507L24.1277 20.8879L24.2598 20.8512L24.374 20.8291H24.5524L24.7986 20.8991L24.8807 20.9174C24.9457 20.9507 25.0088 20.9877 25.0699 21.0281C25.2088 21.1285 25.3296 21.2533 25.4267 21.3968C25.8514 21.994 25.9085 22.8713 25.8657 23.627C25.8499 24.4669 25.669 25.2947 25.3339 26.0601C25.2593 26.2147 25.167 26.3594 25.0592 26.4914C25.0021 26.5577 24.9378 26.6204 24.8736 26.6831H24.8521L24.6987 26.7862C24.4596 26.9337 24.2954 27.2877 24.5916 27.472C24.7653 27.5477 24.9549 27.5761 25.1422 27.5548C25.3296 27.5336 25.5086 27.4632 25.6622 27.3504C26.0657 27.0667 26.4089 26.7011 26.6709 26.2757C26.9329 25.8504 27.1082 25.3744 27.1861 24.8768C27.3946 23.9843 27.4478 23.0606 27.3431 22.1488C27.307 21.6965 27.156 21.262 26.9054 20.8892C26.6547 20.5164 26.3133 20.2183 25.9156 20.0253L25.8657 20.0032C25.8086 19.9468 25.7386 19.9062 25.6622 19.8853C21.9627 18.8162 18.2299 17.8688 14.4637 17.0431C16.3987 16.33 18.2963 15.5129 20.1486 14.5952C22.2222 13.5516 24.2348 12.3836 26.1762 11.0969C27.3229 10.3374 28.4458 9.54725 29.545 8.7264C29.7519 8.57526 29.9804 8.26191 29.6663 8.08128C29.4912 8.01027 29.3017 7.98522 29.1148 8.00837C28.928 8.03153 28.7497 8.10214 28.5957 8.21394C26.7079 9.6111 24.7665 10.9419 22.7502 12.14C22.2649 12.4275 21.7795 12.704 21.287 12.9768L21.1978 13.0285L21.0872 13.0875L20.7303 13.2866C20.4841 13.4193 20.2343 13.5483 19.9845 13.6774C18.9758 14.1935 17.9492 14.6776 16.9047 15.1298C16.3004 15.3903 15.6925 15.6422 15.0811 15.8855C14.7813 16.0034 14.478 16.1214 14.1747 16.232L13.6786 16.4201L13.461 16.4975L13.3896 16.5232L13.2932 16.5563C13.1698 16.5993 13.0504 16.6538 12.9364 16.7187C11.3447 16.3869 9.74952 16.0809 8.14361 15.8376C8.03009 15.8201 7.91347 15.8004 7.79471 15.7803C6.90924 15.6303 5.9049 15.4601 5.17802 16.0809C4.46563 16.7169 3.89784 17.5073 3.51505 18.396C3.02223 19.5384 2.82311 20.7929 2.93692 22.0381C3.02903 22.9813 3.38212 23.8772 3.95399 24.6186C4.00624 24.6804 4.07032 24.7303 4.14218 24.7652C4.21405 24.8001 4.29216 24.8194 4.37154 24.8215C6.65311 25.6178 8.95252 26.3551 11.2698 27.0334C13.8749 27.7965 16.5086 28.4821 19.1744 28.9871C20.4722 29.241 21.7828 29.4196 23.1 29.5217C23.2187 29.532 23.3381 29.532 23.4568 29.5217C24.1668 29.8509 24.9538 29.9609 25.7229 29.8387C26.5855 29.7513 27.4392 29.5872 28.2745 29.3484C28.8538 29.1646 29.4212 28.943 29.9732 28.6849C31.2654 28.0802 32.5235 27.4008 33.7417 26.65C36.5646 24.9542 39.2768 23.0482 41.9212 21.0722C44.0909 19.4465 46.2428 17.7804 48.2627 15.9593C48.4162 15.8229 48.566 15.6826 48.7124 15.5426C48.7607 15.5008 48.7974 15.4466 48.8188 15.3854C48.8403 15.3242 48.8456 15.2583 48.8344 15.1943C48.8231 15.1302 48.7957 15.0704 48.7548 15.0209C48.714 14.9714 48.6611 14.9338 48.6017 14.9122ZM16.9261 27.5716L16.2945 27.413C16.3276 27.3728 16.3488 27.3238 16.3558 27.2715C16.3628 27.2193 16.3551 27.1661 16.3337 27.1182C15.7781 25.9459 15.5802 24.6268 15.7663 23.3358C15.8477 22.7158 16.0185 22.1119 16.2731 21.5442C16.526 20.9604 16.8736 20.4255 17.3009 19.9627C17.36 19.9192 17.405 19.8581 17.4297 19.7876C17.4544 19.717 17.4576 19.6403 17.439 19.5678C17.4204 19.4952 17.3808 19.4303 17.3255 19.3817C17.2702 19.333 17.2018 19.3029 17.1296 19.2954C16.9419 19.2451 16.7449 19.2455 16.5574 19.2965C16.3699 19.3475 16.1983 19.4474 16.059 19.5867C15.1857 20.5599 14.5873 21.7616 14.3287 23.0614C14.0701 24.3613 14.1613 25.7095 14.5922 26.9596C12.8685 26.4914 11.1556 25.979 9.45333 25.4371V25.4038C8.9875 24.2898 8.85571 23.0572 9.07503 21.865C9.27456 20.7011 9.80216 19.6237 10.5917 18.7682L10.6088 18.7508C10.6797 18.6786 10.7749 18.5817 10.7452 18.466C10.7131 18.3406 10.5632 18.2965 10.4633 18.2781C10.2748 18.2482 10.0823 18.259 9.89807 18.3097C9.71381 18.3605 9.54172 18.4501 9.39265 18.5729C8.60817 19.3772 8.03474 20.3744 7.72632 21.4708C7.41791 22.5671 7.38468 23.7266 7.62974 24.8399C6.88746 24.5941 6.14752 24.3423 5.40999 24.0842C5.39751 24.0359 5.37568 23.9907 5.34578 23.9514C5.2327 23.8041 5.12785 23.6502 5.03174 23.4906C5.0007 23.4412 4.97285 23.392 4.945 23.3427L4.94498 23.3427C4.93121 23.3183 4.91744 23.2939 4.90327 23.2695L4.86045 23.181C4.85331 23.1662 4.82476 23.1035 4.81048 23.0667C4.65123 22.7019 4.54192 22.3161 4.48572 21.9202C4.37985 20.9473 4.47473 19.9624 4.76409 19.0301C5.02582 18.1957 5.47595 17.4375 6.07734 16.8182C6.08548 16.8088 6.09391 16.7987 6.10264 16.7883C6.1245 16.7622 6.14819 16.7339 6.1737 16.7075H6.19513H6.24862C6.62519 16.7455 6.99913 16.7998 7.3727 16.854L7.55834 16.8809C8.43981 17.0136 9.31413 17.1683 10.1885 17.3305C10.6612 17.418 11.1304 17.5127 11.5996 17.6075L11.5997 17.6075L11.6159 17.6108L12.1762 17.7251L12.9828 17.8947C14.9408 18.3149 16.8904 18.7719 18.8318 19.2659C20.2283 19.6174 21.6213 19.986 23.0107 20.3718C22.9394 20.4161 22.868 20.4641 22.8002 20.5157C22.3769 20.8491 22.0223 21.2663 21.757 21.7429C21.4916 22.2196 21.321 22.7459 21.2549 23.2915C21.0824 24.3778 21.1164 25.4885 21.3549 26.5614C21.52 27.3275 21.8684 28.0385 22.3684 28.6295C20.537 28.3792 18.7203 28.0261 16.9261 27.5716ZM28.4496 20.6631C28.3104 20.7294 27.9499 20.9839 28.2675 21.076C28.6262 21.1265 28.991 21.058 29.3096 20.8805C32.4254 19.4322 35.3699 17.619 38.085 15.4763C38.863 14.8594 39.6219 14.2204 40.3618 13.5593C40.6187 13.327 40.1334 13.2865 40.0049 13.2975C39.6446 13.3137 39.2975 13.4422 39.0093 13.6662C36.5478 15.8847 33.849 17.8057 30.9654 19.3914C30.1447 19.8436 29.306 20.2674 28.4496 20.6631ZM27.8446 14.1968C27.7904 14.197 27.6175 14.1974 27.5934 14.1158C27.5934 14.0273 27.7469 13.9351 27.7754 13.9203C29.7005 12.6835 31.5072 11.2603 33.1713 9.66997C33.4643 9.45275 33.8106 9.325 34.1705 9.30133C34.3133 9.28658 34.7665 9.27923 34.5274 9.50779C32.7984 11.1548 30.921 12.6273 28.921 13.9056C28.5958 14.1001 28.226 14.2007 27.8504 14.1968C27.8486 14.1968 27.8467 14.1968 27.8446 14.1968Z" fill="#212D3D"/>
</g>
</svg>
