<svg width="40" height="40" viewBox="0 0 40 40" fill="none" xmlns="http://www.w3.org/2000/svg">
<mask id="mask0_2003_571" style="mask-type:alpha" maskUnits="userSpaceOnUse" x="0" y="0" width="40" height="40">
<rect width="40" height="40" rx="20" fill="#D9D9D9"/>
</mask>
<g mask="url(#mask0_2003_571)">
<path d="M16.2036 18.7551C15.9928 18.8096 15.7518 18.9187 15.5891 19.0701C15.4867 19.1671 15.3662 19.3307 15.4083 19.4822C15.4204 19.5367 15.4505 19.5791 15.4867 19.6215C15.4867 19.6215 15.4746 19.6215 15.4686 19.6337C15.089 19.9184 14.7938 20.2457 14.6431 20.7062C14.5407 21.0334 14.5347 21.409 14.607 21.7423C14.7697 22.524 15.3903 23.136 16.1795 23.2632C17.3243 23.451 18.5835 22.9542 19.2764 22.0089C19.8066 21.2879 19.7946 20.3608 19.2644 19.6458C18.5715 18.7005 17.2761 18.4703 16.2036 18.749V18.7551ZM16.4687 19.7306C16.523 19.7306 16.5651 19.7367 16.4687 19.7306V19.7306ZM17.2158 22.221C17.2279 22.221 17.2339 22.221 17.2399 22.221C17.2399 22.221 17.2339 22.221 17.2279 22.221C17.2098 22.221 17.1917 22.221 17.1857 22.221C17.1857 22.221 17.1978 22.221 17.2038 22.221C17.1435 22.2271 17.1255 22.221 17.2158 22.2089V22.221ZM17.3183 22.2149C17.3183 22.2149 17.2942 22.2149 17.2761 22.221C17.2761 22.221 17.2821 22.221 17.2881 22.221C17.3002 22.221 17.3062 22.221 17.3183 22.221V22.2149ZM17.7039 21.712C17.7521 21.5726 17.7039 21.6999 17.6918 21.7302C17.6496 21.809 17.6014 21.8877 17.5472 21.9544C17.5412 21.9665 17.5291 21.9786 17.5231 21.9907C17.5171 22.0029 17.5171 21.9968 17.5111 22.0029C17.499 22.015 17.487 22.0271 17.4749 22.0392C17.4388 22.0756 17.3966 22.1059 17.3604 22.1422C17.3604 22.1422 17.3544 22.1483 17.3484 22.1543C17.3303 22.1725 17.3062 22.1846 17.2942 22.2028C17.3062 22.1907 17.3062 22.1907 17.3183 22.1786C17.3062 22.1846 17.2942 22.1968 17.2821 22.2089C17.2821 22.2089 17.2821 22.2089 17.2761 22.2089C17.2761 22.2089 17.2701 22.2089 17.264 22.2089C17.264 22.2089 17.2701 22.2089 17.2761 22.2089C17.2761 22.2089 17.2761 22.2089 17.2701 22.2089C17.2701 22.2089 17.258 22.2089 17.252 22.2089C17.252 22.2089 17.264 22.2089 17.2701 22.2089C17.252 22.2089 17.2279 22.2089 17.2158 22.2028C17.2038 22.2028 17.1917 22.2028 17.1857 22.1968C17.1616 22.1846 17.1255 22.1725 17.1134 22.1665C17.0773 22.1483 17.0471 22.1301 17.011 22.1119C16.9809 22.0937 16.9387 22.0332 16.9809 22.0937C17.0291 22.1665 16.9688 22.0816 16.9387 22.0574C16.9146 22.0392 16.8905 22.015 16.8724 21.9968C16.782 21.9059 16.7097 21.8029 16.6435 21.6938C16.529 21.4575 16.4627 21.203 16.4446 20.9364C16.4507 20.7546 16.4868 20.585 16.541 20.4093C16.541 20.4214 16.529 20.4274 16.529 20.4274C16.529 20.4274 16.535 20.4153 16.541 20.4032C16.541 20.4032 16.541 20.3911 16.541 20.385C16.5651 20.3244 16.5531 20.3668 16.541 20.3971C16.5471 20.379 16.5591 20.3608 16.5591 20.3547C16.5772 20.3184 16.6013 20.282 16.6254 20.2517C16.6254 20.2517 16.6254 20.2335 16.6495 20.2093C16.6495 20.2093 16.6495 20.2093 16.6555 20.2032C16.6615 20.1911 16.6736 20.1851 16.6796 20.1729C16.6796 20.179 16.6736 20.1851 16.6676 20.1911C16.7278 20.1366 16.8302 20.0578 16.6374 20.2032C16.7579 20.1123 16.9086 20.0033 16.9628 19.8518C17.0411 19.8942 17.1134 19.9427 17.1857 19.9851C17.0652 19.9184 17.1797 19.9851 17.2038 20.0033C17.246 20.0336 17.2821 20.0699 17.3243 20.1063C17.4508 20.2275 17.5532 20.3608 17.6436 20.5062C17.746 20.7183 17.8123 20.9364 17.8244 21.1727C17.8183 21.3121 17.7942 21.4575 17.7521 21.5908C17.74 21.6272 17.728 21.6575 17.7159 21.6938L17.7039 21.712Z" fill="#0F1F34"/>
<path d="M29.0758 33.4791C29.0637 24.5416 29.0517 15.6041 29.0396 6.67259C29.0396 6.57564 29.0155 6.49081 28.9734 6.42415C28.9975 6.17572 28.7143 6.07877 28.4371 6.07877C23.2074 6.04847 17.9837 6.02424 12.76 6C12.3985 6 11.7237 6.12725 11.5369 6.49687C11.4285 6.70894 11.5008 6.84225 11.6454 6.92102C11.4526 7.03009 11.3019 7.18763 11.308 7.37547C11.5731 16.1979 11.0429 25.0324 11.308 33.8548C11.308 34.0366 11.5068 34.1153 11.7418 34.1093C11.7237 34.1396 11.6996 34.1638 11.6815 34.1941C11.5008 34.5758 11.8322 34.7697 12.1937 34.7758C17.2908 34.8485 22.382 34.9273 27.4792 35C27.8587 35 28.5155 34.8728 28.6962 34.485C28.7986 34.2668 28.7324 34.1153 28.5938 34.0184C28.8589 33.9336 29.0758 33.7457 29.0758 33.4791ZM12.9046 33.6791C12.8263 33.6791 12.7359 33.6791 12.6395 33.6972C12.6817 33.6306 12.7058 33.5579 12.7058 33.4791C12.4407 24.6567 12.9709 15.8282 12.7058 7.00585C17.6764 7.03009 22.6471 7.05433 27.6177 7.07856C27.6298 15.907 27.6418 24.7355 27.6539 33.57C27.6539 33.7154 27.7141 33.8184 27.7985 33.8972C22.8339 33.8245 17.8692 33.7518 12.9046 33.6791Z" fill="#0F1F34"/>
</g>
</svg>
