<svg width="40" height="40" viewBox="0 0 40 40" fill="none" xmlns="http://www.w3.org/2000/svg">
<mask id="mask0_2003_572" style="mask-type:alpha" maskUnits="userSpaceOnUse" x="0" y="0" width="40" height="40">
<rect width="40" height="40" rx="20" fill="#D9D9D9"/>
</mask>
<g mask="url(#mask0_2003_572)">
<g clip-path="url(#clip0_2003_572)">
<path d="M10.2049 32.9471C10.0503 24.28 10.0632 15.6129 9.90867 6.94575C9.90223 6.36279 8.49847 6.61858 8.5049 7.08852C8.65945 15.7556 8.64657 24.4228 8.80111 33.0899C8.81399 33.6729 10.2178 33.4171 10.2049 32.9471Z" fill="#0F1F34"/>
<path d="M31.3063 6.57107C31.2934 6.23794 30.9779 6.10707 30.6431 6.11302C30.5787 6.08923 30.495 6.07138 30.4048 6.07138C23.8046 6.04759 17.2107 6.02379 10.6169 6C10.3658 6 9.79912 6.08923 9.68965 6.34502C9.58018 6.60081 9.7798 6.69599 10.0631 6.69599C13.2055 6.70788 16.3543 6.71978 19.4967 6.73168C19.4967 6.74952 19.4774 6.76142 19.4774 6.77927C19.5418 15.5832 19.7414 24.3931 20.1277 33.1911C20.1277 33.2327 20.1535 33.2625 20.1921 33.2922C17.0626 33.2565 13.9331 33.2208 10.8036 33.1851C10.5268 33.1851 10.0052 33.2684 9.88283 33.5421C9.76692 33.8097 9.97942 33.9466 10.2692 33.9466C16.702 34.018 23.1349 34.0953 29.5613 34.1667C29.8382 34.1667 30.3597 34.0834 30.4821 33.8098C30.5143 33.7324 30.5143 33.667 30.5014 33.6134C30.8169 34.012 31.8537 33.8216 31.8279 33.2863C31.4802 24.3872 31.654 15.4761 31.3063 6.57107V6.57107ZM30.0957 33.4052C27.0306 33.3696 23.9655 33.3339 20.9004 33.2982C21.2288 33.2149 21.5315 33.0543 21.5186 32.8461C21.1387 24.1492 20.9391 15.4404 20.8747 6.73763C23.8625 6.74952 26.8568 6.76142 29.8446 6.77332C29.8575 6.77332 29.8704 6.77332 29.8832 6.77332C30.2245 15.6367 30.0571 24.5061 30.4048 33.3696C30.4048 33.4409 30.4306 33.4945 30.4628 33.548C30.3919 33.4588 30.2632 33.4112 30.1022 33.4112L30.0957 33.4052Z" fill="#0F1F34"/>
<path d="M27.6553 10.0926C26.3224 10.1223 24.9959 10.1104 23.663 10.0748C23.3989 10.045 23.077 10.1164 22.8709 10.2651C22.8709 10.2651 22.8645 10.2711 22.858 10.277C22.7872 10.3305 22.7421 10.39 22.7099 10.4555C22.7099 10.4555 22.7099 10.4555 22.7099 10.4614C22.6971 10.4971 22.6713 10.5328 22.6713 10.5685C22.5296 13.4179 22.4781 16.2673 22.5361 19.1226C22.5618 20.5681 22.6005 22.0136 22.6971 23.4591C22.7808 24.6548 24.1588 24.3038 25.0989 24.3276C25.7364 24.3455 26.3803 24.3693 27.0178 24.3693C27.5458 24.3693 28.1447 24.3871 28.589 24.0778C29.0333 23.7685 29.0076 23.2926 29.0333 22.8226C29.0719 22.1147 29.0977 21.4009 29.1106 20.693C29.1685 17.9448 29.0719 15.1965 28.9625 12.4482C28.9238 11.437 29.1492 10.0569 27.6553 10.0926V10.0926ZM25.8459 23.4472C25.4144 23.4353 24.719 23.5603 24.3198 23.4353C24.0429 23.3521 24.1073 23.2569 24.0879 22.9535C24.0686 22.6025 24.0557 22.2516 24.0364 21.9006C23.9849 20.7644 23.9527 19.6223 23.9398 18.4801C23.9012 15.9758 23.9527 13.4774 24.0686 10.973C24.7963 10.9849 25.5175 10.9968 26.2451 10.9968C26.5542 10.9968 27.0758 10.8897 27.3655 10.9789C27.533 11.0325 27.5008 11.0206 27.5008 11.2526C27.5008 11.5619 27.5265 11.8712 27.5394 12.1806C27.6295 14.4589 27.7133 16.7431 27.7197 19.0215C27.7197 20.116 27.7004 21.2106 27.6553 22.3051C27.6424 22.5728 27.5716 22.9119 27.6102 23.1736C27.6102 23.2152 27.6102 23.2569 27.6038 23.2985C27.5523 23.4175 27.5974 23.4651 27.7326 23.4353C27.7326 23.4472 27.7648 23.4472 27.7841 23.4532C27.7583 23.4532 27.7133 23.4532 27.636 23.4651C27.0436 23.5067 26.4383 23.4651 25.8459 23.4413V23.4472Z" fill="#0F1F34"/>
<path d="M14.4031 24.3337C15.0406 24.3516 15.6845 24.3754 16.322 24.3754C16.85 24.3754 17.4489 24.3932 17.8932 24.0839C18.3375 23.7746 18.3118 23.2987 18.3375 22.8287C18.3761 22.1208 18.4019 21.407 18.4148 20.6991C18.4727 17.9509 18.3761 15.2026 18.2667 12.4544C18.228 11.4431 18.4534 10.063 16.9595 10.0987C15.6266 10.1284 14.3001 10.1165 12.9672 10.0809C12.7031 10.0511 12.3812 10.1225 12.1751 10.2712C12.1751 10.2712 12.1687 10.2772 12.1622 10.2831C12.0914 10.3366 12.0463 10.3961 12.0141 10.4616C12.0141 10.4616 12.0141 10.4616 12.0141 10.4675C12.0013 10.5032 11.9755 10.5389 11.9755 10.5746C11.8338 13.424 11.7823 16.2734 11.8403 19.1287C11.866 20.5742 11.9047 22.0197 12.0013 23.4652C12.085 24.6609 13.463 24.3099 14.4031 24.3337ZM15.5493 11.0088C15.8584 11.0088 16.38 10.9018 16.6697 10.991C16.8372 11.0445 16.805 11.0326 16.805 11.2646C16.805 11.574 16.8307 11.8833 16.8436 12.1926C16.9337 14.4709 17.0175 16.7552 17.0239 19.0335C17.0239 20.1281 17.0046 21.2226 16.9595 22.3171C16.9466 22.5848 16.8758 22.9239 16.9144 23.1856C16.9144 23.2273 16.9144 23.2689 16.908 23.3106C16.8565 23.4295 16.9016 23.4771 17.0368 23.4474C17.0368 23.4593 17.069 23.4593 17.0883 23.4652C17.0625 23.4652 17.0175 23.4652 16.9402 23.4771C16.3478 23.5188 15.7425 23.4771 15.1501 23.4533C14.7186 23.4414 14.0232 23.5664 13.624 23.4414C13.3471 23.3582 13.4115 23.263 13.3921 22.9596C13.3728 22.6086 13.3599 22.2577 13.3406 21.9067C13.2891 20.7705 13.2569 19.6284 13.244 18.4862C13.2054 15.9819 13.2569 13.4835 13.3728 10.9791C14.1005 10.991 14.8217 11.0029 15.5493 11.0029V11.0088Z" fill="#0F1F34"/>
</g>
</g>
<defs>
<clipPath id="clip0_2003_572">
<rect width="23.3231" height="28.1667" fill="white" transform="translate(8.50488 6)"/>
</clipPath>
</defs>
</svg>
