<svg width="40" height="40" viewBox="0 0 40 40" fill="none" xmlns="http://www.w3.org/2000/svg">
<mask id="mask0_2003_574" style="mask-type:alpha" maskUnits="userSpaceOnUse" x="0" y="0" width="40" height="40">
<rect width="40" height="40" rx="20" fill="#D9D9D9"/>
</mask>
<g mask="url(#mask0_2003_574)">
<g clip-path="url(#clip0_2003_574)">
<path d="M32.8108 6.33447C32.8108 6.33447 32.8108 6.33447 32.8108 6.32804C32.8045 6.14801 32.6337 6.03872 32.406 6.04514C24.5568 6.26374 16.7013 5.84583 8.85203 6.06443C8.58006 6.07086 8.06774 6.14801 7.94757 6.45019C7.91594 6.52735 7.91594 6.59164 7.92859 6.6495C7.69457 6.75237 7.51115 6.91954 7.51115 7.13813C7.33405 15.8371 8.05509 24.536 7.53012 33.2285C7.50482 33.6849 8.05509 33.7749 8.47254 33.6142C8.37134 33.7299 8.37134 33.8135 8.61801 33.82C15.9865 34.0064 23.3551 34.0386 30.7236 33.9164C31.0145 33.9164 31.4636 33.8585 31.6976 33.6528C31.8558 33.5113 31.938 33.3635 31.6217 33.3699C27.6623 33.4342 23.7029 33.4535 19.7372 33.4278C19.9649 33.3442 20.142 33.2156 20.1547 33.0741C20.7302 24.3559 20.8504 15.612 20.5089 6.88096C24.152 6.92597 27.7952 6.96454 31.4383 6.87453C31.5458 15.6249 31.6597 24.3752 31.7672 33.1256C31.7672 33.4921 33.146 33.2477 33.1397 32.7527C33.0322 23.9445 32.9183 15.1427 32.8108 6.33447V6.33447ZM18.7885 33.2863C18.7885 33.3442 18.8011 33.3892 18.8328 33.4278C15.7272 33.402 12.6154 33.357 9.50982 33.2799C9.30743 33.2799 9.01648 33.312 8.78246 33.402C8.85203 33.3249 8.90896 33.2349 8.91528 33.1256C9.44025 24.4331 8.71288 15.7342 8.89631 7.03526C8.89631 6.9774 8.87733 6.9324 8.85836 6.88096C12.2865 6.79738 15.7146 6.8231 19.1427 6.8681C19.1363 6.89382 19.1174 6.91954 19.1174 6.95168C19.4716 15.7278 19.3577 24.5231 18.7822 33.2863H18.7885Z" fill="#0F1F34"/>
<path d="M22.609 31.2159C22.609 31.2159 22.609 31.248 22.609 31.2673C22.609 31.3895 22.9758 31.3895 23.33 31.3123C25.1579 31.4538 26.9985 31.2416 28.8201 31.4345C29.1426 31.4666 29.4842 31.3895 29.7814 31.248C29.87 31.203 30.2748 30.9394 29.9522 30.9073C27.9725 30.6951 25.9612 30.9652 23.9815 30.7337C23.8613 23.6293 23.8423 16.5184 23.9246 9.41396C23.9246 9.18893 22.5521 9.38181 22.5521 9.78686C22.4698 16.8977 22.4888 24.0022 22.609 31.113C22.5837 31.1516 22.5774 31.1902 22.609 31.2159V31.2159Z" fill="#0F1F34"/>
<path d="M16.587 30.8238H12.6339C12.6339 30.8238 12.6529 30.7916 12.6529 30.7788C12.5454 23.7644 12.3746 16.7435 12.2671 9.72907C12.2671 9.50405 10.8882 9.70979 10.8946 10.102C11.0021 17.1164 11.1728 24.1373 11.2804 31.1517C11.2804 31.1838 11.3057 31.2031 11.3436 31.216C11.3436 31.216 11.3436 31.216 11.3436 31.2224C11.1855 31.5053 11.4764 31.7046 11.7358 31.7046H16.081C16.3972 31.7046 16.8147 31.6082 16.9854 31.306C17.1436 31.0231 16.8526 30.8238 16.5933 30.8238H16.587Z" fill="#0F1F34"/>
</g>
</g>
<defs>
<clipPath id="clip0_2003_574">
<rect width="25.6665" height="27.9998" fill="white" transform="translate(7.47949 6)"/>
</clipPath>
</defs>
</svg>
