<svg width="40" height="40" viewBox="0 0 40 40" fill="none" xmlns="http://www.w3.org/2000/svg">
<mask id="mask0_2003_573" style="mask-type:alpha" maskUnits="userSpaceOnUse" x="0" y="0" width="40" height="40">
<rect width="40" height="40" rx="20" fill="#D9D9D9"/>
</mask>
<g mask="url(#mask0_2003_573)">
</g>
<g clip-path="url(#clip0_2003_573)">
<path d="M15.2985 24.2727C14.9666 24.1964 14.5448 24.3281 14.2475 24.4669C13.3763 24.8691 12.5742 25.3962 11.8344 26.0134C11.7722 26.0689 11.7307 26.1521 11.8067 26.2145C11.8897 26.2839 12.0971 26.27 12.187 26.2631C12.5327 26.2284 12.92 26.1313 13.1896 25.9025C13.2726 25.8331 13.3556 25.7637 13.4385 25.7013C13.48 25.6667 13.5215 25.6389 13.5561 25.6042C13.5768 25.5904 13.5976 25.5765 13.6114 25.5626C13.7773 25.4378 13.9502 25.3199 14.13 25.2089C14.2199 25.1534 14.3028 25.098 14.3927 25.0425C14.4826 24.9939 14.5794 24.9454 14.6624 24.8899C14.5103 25.0009 14.6486 24.8968 14.69 24.876C14.7384 24.8552 14.7799 24.8275 14.8283 24.8067C14.9182 24.7581 15.015 24.7165 15.1049 24.6749C15.1879 24.6333 15.3746 24.5431 15.4161 24.4391C15.4506 24.342 15.3746 24.2935 15.2916 24.2796L15.2985 24.2727Z" fill="#0F1F34"/>
<path d="M5.78415 23.6277C5.72192 23.6416 5.59746 23.6693 5.78415 23.6277V23.6277Z" fill="#0F1F34"/>
<path d="M7.02871 22.4697C6.21972 22.5391 5.41765 22.6778 4.63632 22.8789C4.46345 22.9205 4.26294 23.0245 4.13848 23.1633C4.0555 23.2603 3.9587 23.4199 4.0071 23.5586C4.12465 23.9053 4.59483 23.8984 4.88523 23.829C5.06501 23.7805 5.24479 23.7389 5.43147 23.7042C5.51445 23.6834 5.59742 23.6695 5.68039 23.6557C5.72188 23.6487 5.76337 23.6418 5.80485 23.6349C5.79103 23.6349 5.78411 23.6349 5.7772 23.6349H5.79103C6.15058 23.5724 6.51013 23.5308 6.86968 23.4961C7.06328 23.4823 7.27763 23.406 7.43666 23.295C7.54729 23.2187 7.69941 23.0662 7.70632 22.9205C7.73398 22.5529 7.3122 22.4559 7.02871 22.4836V22.4697Z" fill="#0F1F34"/>
<path d="M12.2208 22.2338C12.2762 21.9009 11.7714 21.9286 11.5847 21.9494C10.9693 21.998 10.3539 22.0534 9.73855 22.102C9.55186 22.1159 9.3306 22.1991 9.17157 22.2892C9.08168 22.3447 8.90191 22.4626 8.88116 22.5875C8.82585 22.9203 9.3306 22.8926 9.51729 22.8718C10.1327 22.8233 10.7481 22.7678 11.3634 22.7192C11.5501 22.7054 11.7714 22.6221 11.9304 22.532C12.0203 22.4765 12.2001 22.3586 12.2208 22.2338Z" fill="#0F1F34"/>
<path d="M13.9773 19.647C14.3022 19.7718 14.807 19.5984 15.0421 19.3626C15.291 19.106 15.1804 18.8702 14.8761 18.7523C13.2374 18.1143 11.5434 17.6219 9.81477 17.3098C9.44831 17.2474 9.01961 17.3237 8.74995 17.5941C8.5356 17.8091 8.57709 18.142 8.9159 18.2044C10.6445 18.5165 12.3385 19.002 13.9773 19.647Z" fill="#0F1F34"/>
<path d="M7.82346 16.8452C7.00064 16.5401 6.14325 16.3182 5.27895 16.1794C5.07843 16.1517 4.91249 16.1448 4.71197 16.1933C4.54602 16.2349 4.33167 16.332 4.21413 16.4638C4.13115 16.554 4.02744 16.6927 4.07584 16.8314C4.11733 16.9562 4.24179 17.0533 4.38007 17.0741C5.25129 17.2128 6.10177 17.4347 6.92459 17.7399C7.08362 17.8023 7.33254 17.7676 7.49157 17.726C7.65752 17.6844 7.87186 17.5873 7.98941 17.4555C8.07238 17.3654 8.1761 17.2267 8.1277 17.088C8.0793 16.9493 7.96175 16.8938 7.82346 16.8383V16.8452Z" fill="#0F1F34"/>
<path d="M32.2038 17.4485C30.7794 17.1087 29.2375 17.1989 27.8062 17.4485C27.3706 17.5248 26.9557 17.6288 26.5478 17.7745C26.3957 17.83 26.1606 17.9895 26.0084 17.9895C25.9255 17.9895 25.6489 17.8369 25.6074 17.8161C25.0612 17.5456 24.5841 17.185 24.0171 16.9353C23.616 16.755 22.9592 17.0948 22.8485 17.4485C22.5581 17.5318 22.2885 17.6843 22.2401 17.8785C21.7491 19.7372 21.68 21.7207 22.0119 23.614C21.8736 23.6903 21.763 23.7804 21.8529 23.8706C21.8805 23.8983 21.9151 23.9261 21.9428 23.9538H18.8589C18.8589 23.9538 18.7967 23.9538 18.769 23.9607C17.967 22.0327 17.8287 19.7788 18.4026 17.7606C19.5504 17.5664 20.712 17.5179 21.8736 17.6219C22.2262 17.6566 22.6895 17.5109 22.8555 17.1711C23.0145 16.8382 22.7103 16.6024 22.406 16.5747C21.2513 16.4707 20.0828 16.4845 18.935 16.644C18.6377 16.6857 18.3472 16.7342 18.0499 16.7897C17.7111 16.8521 17.3101 16.9076 17.1027 17.2197C16.8537 17.6011 16.7777 18.2114 16.6947 18.6622C16.3421 20.5763 16.5218 22.6569 17.2893 24.4532C17.4069 24.7236 17.6973 24.7999 17.9808 24.7722C18.0707 24.8207 18.1813 24.8485 18.2781 24.8485H21.9566C22.088 24.8485 22.2401 24.8277 22.3922 24.786C22.5236 24.8415 22.6964 24.8554 22.89 24.8277L29.597 30.9376C29.7837 31.111 30.3576 30.896 30.5581 30.8267C30.6619 30.792 31.1943 30.5978 31.0145 30.4383C28.546 28.1843 26.0707 25.9373 23.6022 23.6833C23.2219 21.8663 23.2288 19.9799 23.6299 18.1698C24.5426 18.683 25.3654 19.328 26.4994 18.898C27.82 18.3987 29.2513 18.1906 30.6619 18.3293C31.9963 18.4611 33.158 19.0922 33.8356 20.2851C34.5132 21.4849 34.6307 22.9621 34.2781 24.2867C34.0983 24.9733 35.6264 24.793 35.7993 24.1549C36.546 21.3392 35.1562 18.1559 32.2038 17.4485V17.4485Z" fill="#0F1F34"/>
<path d="M32.1834 20.3544C31.008 19.425 29.3693 19.6123 28.0417 20.0561C27.8481 20.1186 27.3018 20.2919 27.3779 20.5902C27.3986 20.6734 27.4678 20.7219 27.5508 20.7497C27.371 20.8537 27.1912 20.9993 27.3433 21.1103C28.8161 22.1645 30.2266 23.3088 31.568 24.5363C31.651 24.6126 31.8584 24.6126 31.9553 24.6057C32.1489 24.5987 32.3632 24.5502 32.543 24.4808C32.6674 24.4323 33.1929 24.2034 32.9786 24.0023C32.9509 23.9815 32.9233 23.9538 32.8956 23.933C32.9855 23.9052 33.0685 23.8705 33.1514 23.822C33.2552 23.7665 33.428 23.6555 33.4419 23.5307C33.6078 22.3586 33.11 21.0964 32.1765 20.3613L32.1834 20.3544ZM28.7608 20.5763C28.7608 20.5763 28.747 20.5763 28.74 20.5693C28.7815 20.5555 28.823 20.5485 28.8645 20.5347C28.8922 20.5347 28.8991 20.5277 28.8991 20.5277C28.9129 20.5277 28.9198 20.5277 28.9336 20.5277C29.0512 20.5069 29.2448 20.4792 29.307 20.4792C29.2517 20.4792 29.4315 20.4792 29.4453 20.4792C29.4591 20.4792 29.6043 20.4792 29.5905 20.4792C30.0884 20.5139 30.5516 20.7219 30.925 21.0548C31.4989 21.575 31.8861 22.3448 31.9553 23.1285C30.925 22.2407 29.8602 21.3808 28.7539 20.5902L28.7608 20.5763Z" fill="#0F1F34"/>
<path d="M7.72657 12.2332C7.8372 12.3164 7.98932 12.3303 8.12069 12.3303C8.3143 12.3303 8.53556 12.2817 8.70842 12.2054C8.85362 12.143 9.02648 12.0667 9.11637 11.9349C9.17169 11.8587 9.227 11.7408 9.12328 11.6645C8.42493 11.1374 7.72657 10.6172 7.02821 10.0902C6.9245 10.0139 6.77929 10 6.641 10C6.4474 10 6.22614 10.0485 6.05328 10.1248C5.90807 10.1873 5.73521 10.2635 5.64532 10.3953C5.59001 10.4716 5.53469 10.5895 5.63841 10.6658C6.33677 11.1929 7.03513 11.713 7.73348 12.2401L7.72657 12.2332Z" fill="#0F1F34"/>
<path d="M10.3886 13.7659C10.7551 14.0225 11.1008 14.3068 11.4258 14.6189C11.5295 14.716 11.6954 14.7438 11.8337 14.7507C12.0204 14.7507 12.2486 14.7091 12.4215 14.6328C12.5667 14.5704 12.7395 14.4802 12.8225 14.3415C12.8778 14.2444 12.9193 14.1265 12.8225 14.0364C12.3869 13.6203 11.9098 13.2457 11.3981 12.9267C11.329 12.892 11.2529 12.8782 11.1769 12.8712C11.087 12.8574 10.9971 12.8574 10.9003 12.8712C10.7136 12.892 10.4923 12.9614 10.3333 13.0654C10.2227 13.1348 10.0636 13.2388 10.0498 13.3775C10.0498 13.4122 10.0498 13.4469 10.0498 13.4815C10.0775 13.5578 10.1259 13.6133 10.2019 13.6411C10.2642 13.6827 10.3264 13.7243 10.3886 13.7659V13.7659Z" fill="#0F1F34"/>
<path d="M14.6067 15.0419C14.5168 14.9726 14.3232 14.9934 14.2264 15.0003C14.0328 15.0142 13.8253 15.0627 13.6386 15.1321C13.5487 15.1668 12.9749 15.4026 13.1892 15.5551C13.7285 15.9435 14.2471 16.3596 14.7519 16.7966C14.8348 16.8659 15.0492 16.8451 15.1322 16.8382C15.3258 16.8243 15.5332 16.7757 15.7199 16.7064C15.8236 16.6648 16.3698 16.4567 16.1693 16.2833C15.6646 15.8464 15.146 15.4372 14.6067 15.0419V15.0419Z" fill="#0F1F34"/>
</g>
<defs>
<clipPath id="clip0_2003_573">
<rect width="32" height="21" fill="white" transform="translate(4 10)"/>
</clipPath>
</defs>
</svg>
