<svg width="40" height="40" viewBox="0 0 40 40" fill="none" xmlns="http://www.w3.org/2000/svg">
<mask id="mask0_2003_658" style="mask-type:alpha" maskUnits="userSpaceOnUse" x="0" y="0" width="40" height="40">
<rect width="40" height="40" rx="20" fill="#D9D9D9"/>
</mask>
<g mask="url(#mask0_2003_658)">
<path fill-rule="evenodd" clip-rule="evenodd" d="M16.7502 6.09163V13.4331C16.7502 13.5001 16.7076 13.5617 16.6366 13.6168C16.6637 13.6265 16.6871 13.6394 16.7045 13.6564C17.7351 14.6286 18.7231 15.6372 19.6738 16.6872C19.8339 16.7859 19.9227 16.964 19.8231 17.1667C19.6537 17.5103 19.1747 17.6077 18.8243 17.6077C16.4777 17.5859 14.1311 17.6353 11.7846 17.6846C10.4221 17.7132 9.05954 17.7418 7.69703 17.7566C7.27647 17.7623 6.75661 17.5218 7.14796 17.0694C7.62109 16.5196 8.11758 15.9899 8.61408 15.4602C9.11057 14.9305 9.60706 14.4008 10.0802 13.851L10.086 13.8568C10.1977 13.725 10.3907 13.6408 10.5983 13.6029C10.5236 11.3067 10.5247 8.96575 10.7339 6.68146C10.7689 6.29778 11.7093 6.20043 11.9955 6.18898L16.4873 6C16.5165 6 16.7502 6.00573 16.7502 6.09163ZM17.6768 16.601C15.7624 16.6071 13.8492 16.6471 11.9365 16.6871C10.9692 16.7073 10.0021 16.7276 9.035 16.7434C9.3124 16.4392 9.59408 16.1387 9.87575 15.8382C10.3722 15.3085 10.8687 14.7788 11.3419 14.229C11.5674 13.9675 11.5079 13.7834 11.3234 13.6795C11.7198 13.6055 12.1301 13.4467 12.124 13.2384C12.0584 11.0834 12.0542 8.87825 12.2217 6.72155L15.2256 6.59517V13.834C15.2256 13.8702 15.2728 13.8937 15.3505 13.9056C15.2397 13.989 15.1735 14.0881 15.2734 14.1833C16.1011 14.964 16.9014 15.7717 17.6768 16.601ZM27.7326 18.5697C27.6683 18.312 27.6917 18.0429 27.826 17.8081C27.8719 17.7237 27.9516 17.6338 28.0043 17.5927C28.0261 17.5931 28.0502 17.5932 28.0503 17.5923C28.0962 17.5984 28.157 17.6093 28.194 17.6248C28.3284 17.6706 28.4452 17.7565 28.5445 17.8596C28.7723 18.1059 28.9008 18.4094 28.965 18.73C29.0691 19.2492 29.0468 19.8022 29.0252 20.3372C29.0201 20.4632 29.0151 20.5881 29.0118 20.7114C28.9968 21.3454 28.9946 21.9794 29.0304 22.6135C27.491 22.6306 25.9517 22.6515 24.4126 22.6725L24.4123 22.6725L24.412 22.6725L24.4118 22.6725C19.1243 22.7445 13.8383 22.8165 8.55235 22.7322C8.34775 22.4182 7.10375 22.6936 7.0668 23.0765V23.0823C6.74554 26.3121 6.75722 29.5648 7.10769 32.7888C7.11846 32.8914 7.23301 32.9459 7.39496 32.9616C7.3519 33.0558 7.44259 33.1247 7.77359 33.121C12.0238 33.0771 16.2741 33.0259 20.5251 32.974C20.7182 33.0397 20.966 33.032 21.1869 32.9659L21.6379 32.9604L21.6466 32.9603L21.6544 32.9602C23.178 32.9416 24.7017 32.9229 26.2255 32.9046C26.3747 33.0303 26.7833 33.0125 27.1315 32.8938C28.9193 32.8725 30.7073 32.8517 32.4956 32.8319C32.7331 33.4076 34.0056 33.1912 34.0056 32.537C34.0056 30.1636 33.9612 27.7901 33.9168 25.4167C33.9031 24.6863 33.8895 23.956 33.8771 23.2256C33.8755 23.1119 33.8442 23.0177 33.7916 22.9417C33.7972 22.9334 33.8024 22.9249 33.8071 22.9163C33.9531 22.6471 33.6727 22.5784 33.4215 22.5784C32.4738 22.5823 31.526 22.589 30.5784 22.5977C30.5791 22.5802 30.5787 22.5623 30.5772 22.5439C30.5199 21.8228 30.5328 21.1056 30.5459 20.3859C30.5488 20.2254 30.5517 20.0648 30.5538 19.904L30.5562 19.7452C30.5695 18.9099 30.5835 18.0337 30.0398 17.3499C28.8424 15.8553 25.7232 16.9949 26.2081 18.9706C26.3482 19.5432 27.8728 19.1538 27.7326 18.5697ZM32.4564 32.1918C32.4484 30.1465 32.4119 28.1011 32.3755 26.0557C32.3592 25.1429 32.3429 24.2301 32.3292 23.3172C32.3291 23.3102 32.3291 23.3033 32.3293 23.2964C30.7422 23.3044 29.1551 23.32 27.5679 23.339C27.579 23.9799 27.591 24.6208 27.603 25.2618C27.6465 27.5894 27.6901 29.9171 27.6917 32.2447C29.28 32.2264 30.8682 32.2086 32.4564 32.1918ZM23.794 23.3883C24.5492 23.378 25.3044 23.3677 26.0596 23.3579C26.0457 23.3944 26.0384 23.4324 26.0388 23.4719C26.0525 24.3847 26.0688 25.2976 26.0851 26.2105C26.121 28.2279 26.157 30.2452 26.1656 32.2626C24.6885 32.28 23.2112 32.2978 21.7339 32.3158C21.7326 30.8037 21.7011 29.2916 21.6696 27.7795C21.6394 26.3256 21.6091 24.8716 21.6056 23.4177C22.3318 23.4082 23.058 23.3983 23.7841 23.3884L23.793 23.3883L23.7938 23.3883H23.7939H23.794ZM20.1914 32.3346C20.1863 30.9299 20.157 29.5253 20.1278 28.1206C20.0956 26.5748 20.0634 25.0291 20.0634 23.4833C20.0634 23.4676 20.0643 23.4522 20.066 23.437C18.4067 23.4569 16.7473 23.4732 15.0877 23.481C15.0638 25.2714 15.0701 27.0618 15.0764 28.8521C15.0806 30.0327 15.0847 31.2133 15.0802 32.3938L15.0802 32.3968C16.5559 32.379 18.0314 32.361 19.5068 32.343L19.5169 32.3428L19.5272 32.3427L19.5369 32.3426L19.5469 32.3425L19.5519 32.3424L20.1914 32.3346ZM8.5247 23.4569C10.2032 23.48 11.8815 23.4879 13.5596 23.4857C13.5331 25.3299 13.5396 27.1741 13.5461 29.0182C13.55 30.1505 13.554 31.2828 13.5504 32.415C11.909 32.4345 10.2675 32.4535 8.62568 32.4716C8.63291 32.4444 8.63529 32.4165 8.63221 32.388C8.30944 29.4219 8.2736 26.4308 8.5247 23.4569Z" fill="#0F1F34"/>
</g>
</svg>
