<svg width="40" height="40" viewBox="0 0 40 40" fill="none" xmlns="http://www.w3.org/2000/svg">
<mask id="mask0_2003_569" style="mask-type:alpha" maskUnits="userSpaceOnUse" x="0" y="0" width="40" height="40">
<rect width="40" height="40" rx="20" fill="#D9D9D9"/>
</mask>
<g mask="url(#mask0_2003_569)">
<path fill-rule="evenodd" clip-rule="evenodd" d="M42.5745 12.9388C40.3549 12.3664 38.1286 11.8316 35.9023 11.3035C33.3034 10.6868 30.6979 10.0804 28.089 9.51482C26.9973 9.27974 25.9023 9.04465 24.7909 8.83342C24.46 8.80295 24.1274 8.86891 23.8311 9.02407C23.7552 9.06154 23.5013 9.19792 23.5408 9.28991C22.2319 10.6281 21.0725 12.1137 20.0844 13.719L17.7427 13.2011C17.204 13.0876 16.6658 12.9717 16.1275 12.8559L16.1274 12.8559C15.0507 12.6242 13.974 12.3925 12.8944 12.179C12.8416 12.122 12.7741 12.0818 12.6998 12.0633C12.5268 12.0107 12.3432 12.008 12.1688 12.0554C11.9944 12.1029 11.8359 12.1987 11.7104 12.3324L11.684 12.3664C11.5653 12.4345 11.3905 12.5606 11.4762 12.6322C10.7821 13.536 10.0431 14.4016 9.30437 15.267C8.46693 16.2479 7.62981 17.2285 6.85879 18.2639C6.79647 18.3308 6.75847 18.4179 6.75126 18.5104C6.74404 18.603 6.76806 18.6953 6.81922 18.7716V18.8192C6.86704 19.0866 6.91569 19.3541 6.96434 19.6216C7.01299 19.8891 7.06163 20.1566 7.10946 20.424C7.027 20.7273 7.28426 20.9452 7.5613 20.9963C9.94271 21.4226 12.294 22.0122 14.5996 22.7612C14.6768 22.785 14.7565 22.7988 14.837 22.8021L12.8581 25.6912C12.7597 25.739 12.6677 25.7996 12.5844 25.8717C12.5386 25.9053 12.5031 25.9518 12.482 26.0055C12.461 26.0592 12.4553 26.118 12.4657 26.175C12.3981 26.2239 12.3463 26.2924 12.3169 26.372C12.2875 26.4515 12.2819 26.5385 12.3007 26.6214C12.3863 26.9377 12.4426 27.2616 12.469 27.5889C12.4822 27.857 12.4755 28.1258 12.4491 28.3929C12.443 28.457 12.4533 28.5217 12.4789 28.5804C12.4885 28.6647 12.5212 28.7443 12.5732 28.8101C12.6252 28.8759 12.6943 28.9251 12.7724 28.9517C13.4232 29.2111 14.0961 29.4134 14.7658 29.6147L14.7659 29.6148C14.9141 29.6593 15.0621 29.7038 15.2097 29.7489C16.6059 30.1713 18.0033 30.586 19.4017 30.9926L24.1972 32.386L24.2209 32.3929L24.2212 32.393C25.6578 32.8131 27.0944 33.2333 28.5277 33.6669L28.8644 33.7678L28.8644 33.7678C29.661 34.0061 30.4616 34.2457 31.242 34.5323L31.4168 34.597C31.5888 34.6602 31.7753 34.6683 31.9518 34.6203C32.1284 34.5723 32.2867 34.4704 32.4063 34.3279C32.4556 34.2745 32.4908 34.209 32.5084 34.1376C32.526 34.0661 32.5255 33.9912 32.507 33.92C32.4884 33.8487 32.4524 33.7836 32.4024 33.731C32.3524 33.6783 32.2902 33.6399 32.2216 33.6193C31.5805 33.3655 30.9134 33.1652 30.2501 32.9661L30.25 32.9661C30.0944 32.9194 29.939 32.8727 29.7843 32.8255C28.3954 32.4005 26.9999 31.9925 25.6045 31.5846L25.6045 31.5846L25.5956 31.582L20.8001 30.1851C19.3555 29.766 17.9109 29.3435 16.4696 28.9074C16.3535 28.8723 16.2372 28.8373 16.1209 28.8023C15.3685 28.5758 14.6138 28.3485 13.874 28.083C13.9037 27.6192 13.8771 27.1532 13.7948 26.6962C15.4 27.1659 17.0111 27.6133 18.6204 28.0603L18.6205 28.0603C19.101 28.1938 19.5813 28.3272 20.0613 28.4611L20.2912 28.525L20.2916 28.5251C23.1306 29.3147 25.9722 30.105 28.8014 30.9244C30.0844 31.2957 31.3641 31.6705 32.6339 32.0759C32.8077 32.1148 32.9879 32.1107 33.1598 32.0639C33.3318 32.0171 33.4906 31.929 33.6233 31.8067C33.8509 31.5887 33.7618 31.3809 33.4914 31.2923C31.1873 30.5585 28.8581 29.9027 26.532 29.2477L25.9287 29.0778C24.3396 28.6299 22.7486 28.1872 21.1577 27.7445C19.8561 27.3823 18.5547 27.0202 17.2546 26.6553C16.1992 26.36 15.1448 26.058 14.0916 25.7491L17.2744 21.1189L18.5079 21.4257C22.0501 22.3081 25.5956 23.1904 29.1477 24.0353C30.9683 24.4692 32.7944 24.8882 34.6259 25.2925C34.8008 25.3209 34.9799 25.2937 35.1395 25.2146C35.2991 25.1355 35.4317 25.0083 35.5198 24.8496C35.6649 24.5089 35.3812 24.2909 35.0943 24.2261C31.7236 23.4902 28.3693 22.6795 25.0184 21.8584C22.9042 21.3402 20.7899 20.8138 18.6757 20.2875C17.162 19.9106 15.6482 19.5338 14.1345 19.1599C12.3051 18.7056 10.4757 18.2582 8.64637 17.8176C9.23632 17.0741 9.85465 16.3524 10.4736 15.6299L10.4736 15.6299C11.2388 14.7368 12.0049 13.8426 12.7196 12.9047C15.5165 13.4873 18.3067 14.1073 21.0936 14.7376C24.5633 15.5212 28.0296 16.323 31.4927 17.143L36.5125 18.3253C36.8433 18.3625 37.1774 18.2971 37.4723 18.1378C37.5877 18.0833 37.9439 17.8686 37.6504 17.7971C34.4841 17.0476 31.3157 16.3038 28.1451 15.5656C25.8254 15.0273 23.5046 14.4957 21.1827 13.971C21.2414 13.9267 21.2927 13.8727 21.3344 13.811C22.2744 12.2703 23.3808 10.8449 24.6326 9.5624C26.4985 9.9302 28.3579 10.3525 30.2173 10.7748L30.2196 10.7753C32.8383 11.3749 35.4538 11.9927 38.0659 12.6287C39.1895 12.9035 40.3131 13.1852 41.4366 13.4736C41.7682 13.5106 42.1029 13.443 42.3964 13.2795L42.3968 13.2793C42.5127 13.2143 42.8644 13.0171 42.5745 12.9388ZM16.2981 20.8634C16.2016 20.9081 16.1177 20.9773 16.0541 21.0645L15.5395 21.814C15.5017 21.785 15.4593 21.7632 15.4142 21.7492C13.149 21.0163 10.8426 20.4271 8.50787 19.9845L8.30999 18.901C10.9749 19.5416 13.6365 20.2024 16.2981 20.8634ZM32.017 19.9401C32.1325 19.975 32.255 19.9768 32.3712 19.945C32.4875 19.9131 32.5931 19.849 32.6767 19.7596C32.7101 19.7272 32.7343 19.6859 32.7469 19.6404C32.7594 19.5948 32.7598 19.5466 32.748 19.5008C32.7361 19.455 32.7125 19.4135 32.6797 19.3805C32.6468 19.3475 32.6058 19.3242 32.5612 19.3133C30.7552 18.8083 28.9277 18.3825 27.101 17.9569C26.0688 17.7164 25.0368 17.476 24.0091 17.2214C23.2802 17.0442 22.5546 16.8603 21.8323 16.6592C21.7169 16.6244 21.5944 16.6228 21.4782 16.6546C21.3619 16.6864 21.2563 16.7505 21.1727 16.8399C21.1393 16.8724 21.1151 16.9135 21.1025 16.959C21.0899 17.0046 21.0895 17.0528 21.1014 17.0986C21.1132 17.1444 21.1368 17.186 21.1697 17.219C21.2026 17.2521 21.2435 17.2751 21.2881 17.2861C23.1171 17.7934 24.9664 18.2249 26.8152 18.6564C27.8469 18.8971 28.8785 19.1378 29.9062 19.3917C30.612 19.5654 31.3145 19.7459 32.017 19.9401ZM29.9924 21.0667C28.7244 20.787 27.4561 20.5073 26.2064 20.1477C26.1601 20.1313 26.1185 20.1032 26.0852 20.0662C26.0519 20.0291 26.028 19.9842 26.0156 19.9353C26.0032 19.8864 26.0026 19.8352 26.0141 19.7861C26.0255 19.7369 26.0485 19.6914 26.0811 19.6537C26.1609 19.559 26.2666 19.4914 26.3843 19.4598C26.5021 19.4281 26.6263 19.434 26.7407 19.4766C27.9919 19.8366 29.2607 20.1166 30.5298 20.3965C31.7698 20.6701 33.01 20.9437 34.2341 21.2921C34.2803 21.308 34.322 21.3356 34.3554 21.3723C34.3887 21.409 34.4127 21.4537 34.4251 21.5023C34.4376 21.551 34.438 21.6021 34.4266 21.651C34.4151 21.7 34.392 21.7452 34.3594 21.7826C34.2799 21.8779 34.1744 21.9461 34.0567 21.9784C33.9389 22.0106 33.8145 22.0054 33.6998 21.9632C32.4759 21.6144 31.2343 21.3405 29.9924 21.0667Z" fill="#212D3D"/>
</g>
</svg>
